<?xml version="1.0" encoding="utf-8"?>
<!-- Generator: Adobe Illustrator 24.2.1, SVG Export Plug-In . SVG Version: 6.00 Build 0)  -->
<svg version="1.1" id="Ebene_1" xmlns="http://www.w3.org/2000/svg" xmlns:xlink="http://www.w3.org/1999/xlink" x="0px" y="0px"
	 viewBox="0 0 1280 1024" style="enable-background:new 0 0 1280 1024;" xml:space="preserve">
<style type="text/css">
	.st0{fill:#F09BC9;}
	.st1{fill:#8F9BC9;}
	.st2{fill:#8FC9C9;}
	.st3{fill:#F0C3C9;}
</style>
<g id="Ebene_3">
	<ellipse class="st0" cx="661.5" cy="337.4" rx="322.2" ry="329.9"/>
</g>
<g id="Ebene_2_1_">
	<polygon class="st1" points="867.2,1016.5 456.1,1015 369.6,517.8 953.5,519.9 	"/>
</g>
<g id="Ebene_4">
	<polygon class="st2" points="747.6,896.6 661.4,852.1 575.2,896.4 591.9,802.6 522.1,735.8 618.4,722.4 661.7,636.9 704.6,722.4 
		801,736.4 731.2,802.6 	"/>
</g>
<g id="Ebene_1_1_">
	<ellipse class="st3" cx="460" cy="300.8" rx="57.7" ry="54.1"/>
	<ellipse class="st3" cx="564.2" cy="146" rx="69.8" ry="71.5"/>
	<ellipse class="st0" cx="951.1" cy="508.9" rx="43.5" ry="48.7"/>
	<ellipse class="st0" cx="869.4" cy="508.9" rx="43.5" ry="48.7"/>
	<ellipse class="st0" cx="869.4" cy="578.6" rx="81.7" ry="83.6"/>
	<ellipse class="st0" cx="782.7" cy="508.9" rx="43.5" ry="48.7"/>
	<ellipse class="st0" cx="748" cy="559.1" rx="43.5" ry="48.7"/>
	<ellipse class="st0" cx="700.7" cy="508.9" rx="43.5" ry="48.7"/>
	<ellipse class="st0" cx="622.3" cy="512.3" rx="43.5" ry="48.7"/>
	<ellipse class="st0" cx="540.7" cy="512.3" rx="43.5" ry="48.7"/>
	<ellipse class="st0" cx="453.7" cy="512.3" rx="43.5" ry="48.7"/>
	<ellipse class="st0" cx="372" cy="512.3" rx="43.5" ry="48.7"/>
</g>
</svg>
