<?xml version="1.0" encoding="utf-8"?>
<!-- Generator: Adobe Illustrator 24.2.1, SVG Export Plug-In . SVG Version: 6.00 Build 0)  -->
<svg version="1.1" id="Ebene_1" xmlns="http://www.w3.org/2000/svg" xmlns:xlink="http://www.w3.org/1999/xlink" x="0px" y="0px"
	 viewBox="0 0 1280 1024" style="enable-background:new 0 0 1280 1024;" xml:space="preserve">
<style type="text/css">
	.st0{fill:#BE9DDF;}
	.st1{fill:#6490C2;stroke:#6490C2;stroke-width:11;stroke-miterlimit:10;}
	.st2{font-family:'InkFree';}
	.st3{font-size:246.5912px;}
</style>
<path class="st0" d="M283.7,191.5l112.2,134.2c4.3,5.1,10.8,7.9,17.4,7.3l179.3-14c17.3-1.4,28.5,18.2,18.6,32.5l-98.9,142.2
	c-4,5.8-4.8,13.3-2.1,19.8L576,670.6c6.6,15.7-7.4,32.1-23.8,28l-175.3-44.3c-6.2-1.6-12.8-0.1-17.8,3.9L218.5,771.4
	c-13.1,10.6-32.8,1.5-33.4-15.4l-6.6-170c-0.3-7.1-4.1-13.6-10.2-17.1L18.4,481c-15.1-8.8-13.2-31.2,3.1-37.2l168.7-62
	c6.2-2.3,11-7.5,12.7-13.9l45.3-168.6C252.5,183.2,273,178.7,283.7,191.5z"/>
<text transform="matrix(0.7433 0 0 1 238.8975 572.458)" class="st1 st2 st3">Stars On Ice</text>
</svg>
