<?xml version="1.0" encoding="utf-8"?>
<!-- Generator: Adobe Illustrator 24.2.1, SVG Export Plug-In . SVG Version: 6.00 Build 0)  -->
<svg version="1.1" id="Ebene_2" xmlns="http://www.w3.org/2000/svg" xmlns:xlink="http://www.w3.org/1999/xlink" x="0px" y="0px"
	 viewBox="0 0 1280 1024" style="enable-background:new 0 0 1280 1024;" xml:space="preserve">
<style type="text/css">
	.st0{fill:#F7C621;}
	.st1{fill:#F7E345;}
</style>
<path class="st0" d="M1144.3,410.9c0,62.2,0,109.1-20.5,132c-29.7,32.6-46.7-32.1-87.7-1.3c-44.5,33.4-33.6,77.8-52.8,92.2
	c-21.4,16.1-22.3-102.8-71.6-72.3c-21.8,13.5-20.5,85.9-32.3,93.9c-53.3,36.8-67.2-55.8-73.8-72.3c-16.6-42.7-41.9-100.7-68.5-80.8
	c-36.2,27.5-14,133.6-60.2,138.7c-76.4,8.9-46.7-145.9-87.7-165.8c-50.2-24.5-85.1,103.6-122.7,82.5c-21.8-12.7-55-99.8-106.9-66.4
	c-42.3,27.5-24.9,37.2-53.3,68.9c-34.9,39.3-96.5,31.3-96.5-95.2c0-184,172.9-459.7,467-459.7C934.8,5.3,1144.3,157.1,1144.3,410.9z
	"/>
<ellipse class="st1" cx="552.4" cy="152.8" rx="86.9" ry="80.2"/>
<ellipse class="st1" cx="418" cy="295.1" rx="67.2" ry="62.1"/>
</svg>
