<?xml version="1.0" encoding="utf-8"?>
<!-- Generator: Adobe Illustrator 24.2.1, SVG Export Plug-In . SVG Version: 6.00 Build 0)  -->
<svg version="1.1" id="Ebene_1" xmlns="http://www.w3.org/2000/svg" xmlns:xlink="http://www.w3.org/1999/xlink" x="0px" y="0px"
	 viewBox="0 0 1280 1024" style="enable-background:new 0 0 1280 1024;" xml:space="preserve">
<style type="text/css">
	.st0{fill:#E6E6E6;}
	.st1{fill:#FFFFFF;}
</style>
<path class="st0" d="M839.2,1024H456.8c-12.8,0-23.6-10.1-25.2-23.7l-89.5-735.8c-2-16.3,9.9-30.7,25.2-30.7h565.4
	c15.4,0,27.3,14.5,25.2,30.9l-93.5,735.8C862.6,1013.9,851.9,1024,839.2,1024z"/>
<path class="st0" d="M938.1,206.7H361.8c-11,0-20-8.9-20-20v-46.4c0-51,41.3-92.3,92.3-92.3h431.6c51,0,92.3,41.3,92.3,92.3v46.4
	C958.1,197.8,949.2,206.7,938.1,206.7z"/>
<path class="st1" d="M785.6,972.2h-22.8c-13.2,0-23.9-11.5-23.9-25.6l1.8-597.8c-0.7-18.2,13-33.4,30-33.4h52.7
	c17,0,30.6,15.1,30,33.3l-44,600C808.5,961.9,798.1,972.2,785.6,972.2z"/>
<path class="st1" d="M520.9,972.2h22.8c13.2,0,23.9-11.5,23.9-25.6l-1.8-597.8c0.7-18.2-13-33.4-30-33.4h-52.7
	c-17,0-30.6,15.1-30,33.3l44,600C498.1,961.9,508.4,972.2,520.9,972.2z"/>
<path class="st1" d="M671.6,972.2h-43.2c-14.9,0-27-12.1-27-27V342.4c0-14.9,12.1-27,27-27h43.2c14.9,0,27,12.1,27,27v602.7
	C698.6,960.1,686.5,972.2,671.6,972.2z"/>
<path class="st0" d="M685.3,40.8h-70.7c-4,0-7.3-3.3-7.3-7.3V23.4c0-9.4,7.7-17.1,17.1-17.1h51.1c9.4,0,17.1,7.7,17.1,17.1v10.1
	C692.7,37.5,689.4,40.8,685.3,40.8z"/>
</svg>
