<?xml version="1.0" encoding="utf-8"?>
<!-- Generator: Adobe Illustrator 24.2.1, SVG Export Plug-In . SVG Version: 6.00 Build 0)  -->
<svg version="1.1" id="Ebene_1" xmlns="http://www.w3.org/2000/svg" xmlns:xlink="http://www.w3.org/1999/xlink" x="0px" y="0px"
	 viewBox="0 0 1280 1024" style="enable-background:new 0 0 1280 1024;" xml:space="preserve">
<style type="text/css">
	.st0{fill:#F2EAD7;}
	.st1{fill:#E4D5B8;}
</style>
<ellipse class="st0" cx="639.5" cy="487.6" rx="439.7" ry="242.1"/>
<path class="st0" d="M937.2,329.2c0,142.5-139.4,258.1-311.3,258.1S314.6,471.7,314.6,329.2c0-92.6,69.3-161.8,86-178.1
	c27.9-27.3-1.3-132.5,6.9-136.7C448.2-6.8,542,77.2,562.8,74.2c0,0,31.9-4.6,63.1-3.2C697.2,74.4,937.2,160.2,937.2,329.2z"/>
<ellipse transform="matrix(0.5271 -0.8498 0.8498 0.5271 -298.827 579.1984)" class="st1" cx="371" cy="558.1" rx="73.4" ry="158.9"/>
<ellipse transform="matrix(0.4655 -0.885 0.885 0.4655 0.7381 504.6795)" class="st1" cx="418.2" cy="251.7" rx="92" ry="52.2"/>
<ellipse transform="matrix(0.9629 -0.27 0.27 0.9629 -3.2358 122.2422)" class="st1" cx="442.8" cy="72.9" rx="22.3" ry="41"/>
</svg>
