<?xml version="1.0" encoding="utf-8"?>
<!-- Generator: Adobe Illustrator 24.2.1, SVG Export Plug-In . SVG Version: 6.00 Build 0)  -->
<svg version="1.1" id="Ebene_1" xmlns="http://www.w3.org/2000/svg" xmlns:xlink="http://www.w3.org/1999/xlink" x="0px" y="0px"
	 viewBox="0 0 1280 1024" style="enable-background:new 0 0 1280 1024;" xml:space="preserve">
<style type="text/css">
	.st0{fill:#6ABBBB;}
	.st1{fill:#ACD5DD;}
</style>
<path class="st0" d="M1106.3,440.8c0,240.5-192.6,352.9-430.2,352.9S245.9,681.3,245.9,440.8S438.5,5.3,676.1,5.3
	S1106.3,200.3,1106.3,440.8z"/>
<ellipse class="st0" cx="344.1" cy="724.9" rx="118.5" ry="117.3"/>
<ellipse class="st0" cx="506.7" cy="724.9" rx="118.5" ry="117.3"/>
<ellipse class="st0" cx="676.1" cy="724.9" rx="118.5" ry="117.3"/>
<ellipse class="st0" cx="838.7" cy="724.9" rx="118.5" ry="117.3"/>
<ellipse class="st0" cx="1008" cy="724.9" rx="118.5" ry="117.3"/>
<ellipse class="st0" cx="816.1" cy="842.3" rx="108.6" ry="108.1"/>
<path class="st0" d="M1070.1,822.7c0,59.7-34.7,194.9-94.7,194.9c-60,0-108.6-115.7-108.6-175.4c0-59.7,48.6-108.1,108.6-108.1
	C1035.4,734.1,1070.1,762.9,1070.1,822.7z"/>
<ellipse class="st1" cx="446.9" cy="399.5" rx="89.2" ry="91.7"/>
<ellipse class="st1" cx="589.1" cy="187.9" rx="118.5" ry="119.9"/>
</svg>
