<?xml version="1.0" encoding="utf-8"?>
<!-- Generator: Adobe Illustrator 24.2.1, SVG Export Plug-In . SVG Version: 6.00 Build 0)  -->
<svg version="1.1" id="Ebene_1" xmlns="http://www.w3.org/2000/svg" xmlns:xlink="http://www.w3.org/1999/xlink" x="0px" y="0px"
	 viewBox="0 0 1280 1024" style="enable-background:new 0 0 1280 1024;" xml:space="preserve">
<style type="text/css">
	.st0{fill:#350010;}
</style>
<path class="st0" d="M600.8,123.3l4.5,33.7c0.5,4-2.1,7.7-5.9,8.3l0,0c-3.8,0.6-7.3-2.2-7.9-6.2l-4.5-33.7c-0.5-4,2.1-7.7,5.9-8.3
	l0,0C596.8,116.5,600.3,119.3,600.8,123.3z"/>
<path class="st0" d="M629.2,126.3l28.4,16.4c3.4,1.9,4.6,6.4,2.7,9.9l0,0c-1.8,3.6-6.1,4.8-9.5,2.9l-28.4-16.4
	c-3.4-1.9-4.6-6.4-2.7-9.9l0,0C621.6,125.6,625.9,124.3,629.2,126.3z"/>
<path class="st0" d="M684.7,100l-10.5,32.3c-1.3,3.8-5.2,5.9-8.8,4.5l0,0c-3.6-1.3-5.6-5.5-4.3-9.3l10.5-32.3
	c1.3-3.8,5.2-5.9,8.8-4.5l0,0C684.1,92.1,686,96.2,684.7,100z"/>
<path class="st0" d="M742.8,92.4l-32.4-1.6c-3.8-0.2-6.8-3.6-6.6-7.6l0,0c0.2-4,3.4-7.2,7.3-7l32.4,1.6c3.8,0.2,6.8,3.6,6.6,7.6l0,0
	C749.9,89.5,746.6,92.6,742.8,92.4z"/>
<path class="st0" d="M673.1,58.5l16-29.6c1.9-3.5,6.1-4.7,9.5-2.8l0,0c3.3,2,4.5,6.5,2.6,10l-16,29.6c-1.9,3.5-6.1,4.7-9.5,2.8l0,0
	C672.4,66.5,671.2,62,673.1,58.5z"/>
<path class="st0" d="M639.7,88l-13-31.2c-1.5-3.7,0-8,3.6-9.6l0,0c3.5-1.6,7.6,0,9.1,3.7l13,31.2c1.5,3.7,0,8-3.6,9.6l0,0
	C645.4,93.3,641.3,91.7,639.7,88z"/>
<path class="st0" d="M607.1,30l27-18.8c3.2-2.2,7.5-1.3,9.6,2.1l0,0c2.1,3.4,1.3,7.9-2,10.1l-27,18.8c-3.2,2.2-7.5,1.3-9.6-2.1l0,0
	C603,36.8,603.9,32.2,607.1,30z"/>
<path class="st0" d="M574.1,53.3l24.7,22.1c2.9,2.6,3.3,7.3,0.8,10.3l0,0c-2.5,3.1-6.9,3.5-9.8,0.8L565,64.4
	c-2.9-2.6-3.3-7.3-0.8-10.3l0,0C566.7,51,571.1,50.6,574.1,53.3z"/>
<path class="st0" d="M454,140.7l-26,20.4c-3.1,2.4-7.4,1.8-9.7-1.5l0,0c-2.3-3.3-1.7-7.8,1.4-10.2l26-20.4c3.1-2.4,7.4-1.8,9.7,1.5
	l0,0C457.7,133.7,457.1,138.3,454,140.7z"/>
<path class="st0" d="M465.2,168v34.7c0,3.8-2.8,7-6.4,7h-1.2c-3.5,0-6.3-3.1-6.3-7v-34.7c0-3.8,2.8-7,6.4-7h1.2
	C462.3,161,465.2,164.1,465.2,168z"/>
<path class="st0" d="M513.7,206.9l-32,5.8c-3.8,0.7-7.4-2-8.1-6l0,0c-0.7-4,1.9-7.7,5.7-8.4l32-5.8c3.8-0.7,7.4,2,8.1,6l0,0
	C520,202.4,517.5,206.2,513.7,206.9z"/>
<path class="st0" d="M547.8,256.8l-14.2-30.7c-1.7-3.7-0.2-8,3.2-9.8l0,0c3.5-1.8,7.6-0.2,9.3,3.4l14.2,30.7c1.7,3.7,0.2,8-3.2,9.8
	l0,0C553.7,261.9,549.5,260.4,547.8,256.8z"/>
<path class="st0" d="M542.7,176.2l32.5,0.5c3.8,0,6.9,3.4,6.8,7.4l0,0c0,4-3.2,7.3-7.1,7.2l-32.5-0.5c-3.8,0-6.9-3.4-6.8-7.4l0,0
	C535.7,179.3,538.9,176.1,542.7,176.2z"/>
<path class="st0" d="M502.1,159.6l19.8-27c2.3-3.2,6.7-3.8,9.8-1.3l0,0c3,2.5,3.6,7.1,1.3,10.3l-19.8,27c-2.3,3.2-6.7,3.8-9.8,1.3
	l0,0C500.3,167.4,499.8,162.8,502.1,159.6z"/>
<path class="st0" d="M534.8,101.6l28.7,15.9c3.4,1.9,4.7,6.3,2.9,9.9l0,0c-1.8,3.6-6,4.9-9.4,3.1l-28.7-15.9
	c-3.4-1.9-4.7-6.3-2.9-9.9l0,0C527.3,101.1,531.4,99.7,534.8,101.6z"/>
<path class="st0" d="M499.6,82.3l-6.6,33.4c-0.8,3.9-4.5,6.5-8.2,5.7l0,0c-3.8-0.8-6.2-4.7-5.4-8.6l6.6-33.4
	c0.8-3.9,4.5-6.5,8.2-5.7l0,0C498,74.5,500.3,78.4,499.6,82.3z"/>
<path class="st0" d="M934.7,450.3l-32.2,4c-3.8,0.5-7.2-2.4-7.7-6.4l0,0c-0.4-4,2.3-7.6,6.1-8.1l32.2-4c3.8-0.5,7.2,2.4,7.7,6.4l0,0
	C941.2,446.2,938.5,449.8,934.7,450.3z"/>
<path class="st0" d="M863,284l-16.2,29.5c-1.9,3.5-6.2,4.7-9.5,2.7l0,0c-3.3-2-4.5-6.5-2.5-10l16.2-29.5c1.9-3.5,6.2-4.7,9.5-2.7
	l0,0C863.8,276,865,280.5,863,284z"/>
<path class="st0" d="M886.6,343l-30.4-11.8c-3.6-1.4-5.4-5.6-4.1-9.4l0,0c1.3-3.8,5.3-5.7,8.9-4.3l30.4,11.8
	c3.6,1.4,5.4,5.6,4.1,9.4l0,0C894.3,342.4,890.2,344.4,886.6,343z"/>
<path class="st0" d="M892.5,404.2l2.3-34c0.3-4,3.6-7.1,7.4-6.8l0,0c3.8,0.3,6.7,3.8,6.4,7.8l-2.3,34c-0.3,4-3.6,7.1-7.4,6.8l0,0
	C895.1,411.7,892.2,408.2,892.5,404.2z"/>
<path class="st0" d="M926.4,331.7l27.8,17.5c3.3,2.1,4.4,6.6,2.4,10l0,0c-2,3.5-6.3,4.6-9.5,2.5l-27.8-17.5c-3.3-2.1-4.4-6.6-2.4-10
	l0,0C918.9,330.8,923.1,329.6,926.4,331.7z"/>
<path class="st0" d="M899.2,296l30-12.9c3.6-1.5,7.6,0.2,9,4l0,0c1.4,3.7-0.2,8-3.8,9.5l-30,12.9c-3.6,1.5-7.6-0.2-9-4l0,0
	C893.9,301.8,895.6,297.5,899.2,296z"/>
<path class="st0" d="M955.1,263l17.2,28.9c2,3.4,1.1,7.9-2.2,10.1l0,0c-3.2,2.2-7.6,1.1-9.6-2.3l-17.2-28.9c-2-3.4-1.1-7.9,2.2-10.1
	l0,0C948.8,258.5,953.1,259.6,955.1,263z"/>
<path class="st0" d="M933.8,227.8l-21.6,25.4c-2.6,3-6.9,3.3-9.8,0.6l0,0c-2.9-2.7-3.1-7.3-0.5-10.3l21.6-25.4
	c2.6-3,6.9-3.3,9.8-0.6l0,0C936.1,220.2,936.3,224.7,933.8,227.8z"/>
<path class="st0" d="M853.5,99.5l-18.8-27.8c-2.2-3.3-1.5-7.8,1.6-10.2l0,0c3.2-2.3,7.5-1.6,9.7,1.7L864.8,91
	c2.2,3.3,1.5,7.8-1.6,10.2l0,0C860,103.5,855.7,102.8,853.5,99.5z"/>
<path class="st0" d="M827,110.6l-32.4-0.8c-3.8-0.1-6.9-3.5-6.8-7.5l0,0c0.1-4,3.3-7.2,7.1-7.1l32.4,0.8c3.8,0.1,6.9,3.5,6.8,7.5
	l0,0C834,107.4,830.8,110.7,827,110.6z"/>
<path class="st0" d="M789.1,160.7l-4.8-33.7c-0.6-4,2.1-7.7,5.9-8.3l0,0c3.8-0.6,7.3,2.2,7.9,6.2l4.8,33.7c0.6,4-2.1,7.7-5.9,8.3
	l0,0C793.2,167.4,789.7,164.6,789.1,160.7z"/>
<path class="st0" d="M740.8,195.4l29.5-14.2c3.5-1.7,7.6,0,9.2,3.6l0,0c1.6,3.7,0,8-3.4,9.7l-29.5,14.2c-3.5,1.7-7.6,0-9.2-3.6l0,0
	C735.8,201.4,737.4,197.1,740.8,195.4z"/>
<path class="st0" d="M817.6,191.9l-1.3,34.1c-0.1,4-3.4,7.2-7.2,7l0,0c-3.8-0.1-6.8-3.6-6.7-7.6l1.3-34.1c0.1-4,3.4-7.2,7.2-7l0,0
	C814.8,184.5,817.8,187.9,817.6,191.9z"/>
<path class="st0" d="M834.3,149.7l25.2,21.5c3,2.6,3.4,7.2,1,10.3l0,0c-2.4,3.2-6.8,3.6-9.8,1.1L825.6,161c-3-2.6-3.4-7.2-1-10.3
	l0,0C827,147.6,831.4,147.1,834.3,149.7z"/>
<path class="st0" d="M888.7,185.4l-15.8,29.7c-1.9,3.5-6.1,4.8-9.5,2.8l0,0c-3.3-2-4.5-6.4-2.7-10l15.8-29.7
	c1.9-3.5,6.1-4.8,9.5-2.8l0,0C889.4,177.4,890.6,181.9,888.7,185.4z"/>
<path class="st0" d="M907.9,148.8l-31.6-7.7c-3.7-0.9-6.1-4.8-5.2-8.8l0,0c0.9-3.9,4.6-6.4,8.3-5.5l31.6,7.7
	c3.7,0.9,6.1,4.8,5.2,8.8l0,0C915.4,147.3,911.6,149.7,907.9,148.8z"/>
<path class="st0" d="M670.7,303l27,18.9c3.2,2.2,4.1,6.8,1.9,10.1l0,0c-2.1,3.4-6.4,4.3-9.6,2l-27-18.9c-3.2-2.2-4.1-6.8-1.9-10.1
	l0,0C663.2,301.7,667.5,300.8,670.7,303z"/>
<path class="st0" d="M691.7,282.8l30.6-11.4c3.6-1.3,7.6,0.6,8.9,4.4l0,0c1.3,3.8-0.6,8-4.2,9.3l-30.6,11.4
	c-3.6,1.3-7.6-0.6-8.9-4.4l0,0C686.2,288.3,688.1,284.1,691.7,282.8z"/>
<path class="st0" d="M710,221.7l15.9,29.7c1.9,3.5,0.7,8-2.7,10l0,0c-3.3,2-7.6,0.7-9.5-2.8l-15.9-29.7c-1.9-3.5-0.7-8,2.7-10l0,0
	C703.9,217,708.1,218.2,710,221.7z"/>
<path class="st0" d="M743.3,171.1l-22.7,24.3c-2.7,2.9-7.1,2.9-9.8,0.1l0,0c-2.7-2.8-2.8-7.4-0.1-10.3l22.7-24.3
	c2.7-2.9,7.1-2.9,9.8-0.1l0,0C746,163.6,746,168.3,743.3,171.1z"/>
<path class="st0" d="M672.8,203.2l-10.4-32.3c-1.2-3.8,0.7-8,4.4-9.3l0,0c3.6-1.3,7.6,0.7,8.8,4.6l10.4,32.3c1.2,3.8-0.7,8-4.4,9.3
	l0,0C677.9,209.1,674,207.1,672.8,203.2z"/>
<path class="st0" d="M671.5,249l-30.8-10.6c-3.6-1.2-5.6-5.4-4.5-9.2l0,0c1.2-3.8,5.1-5.9,8.8-4.7l30.8,10.6
	c3.6,1.2,5.6,5.4,4.5,9.2l0,0C679.1,248.2,675.2,250.3,671.5,249z"/>
<path class="st0" d="M608.6,236.1l4.6-33.7c0.5-4,4.1-6.8,7.9-6.2l0,0c3.8,0.6,6.4,4.3,5.9,8.3l-4.6,33.7c-0.5,4-4.1,6.8-7.9,6.2
	l0,0C610.7,243.8,608.1,240.1,608.6,236.1z"/>
<path class="st0" d="M603.1,277.4l32.1-4.7c3.8-0.5,7.3,2.2,7.8,6.2l0,0c0.5,4-2.1,7.7-5.9,8.2l-32.1,4.7c-3.8,0.5-7.3-2.2-7.8-6.2
	l0,0C596.7,281.7,599.4,278,603.1,277.4z"/>
<path class="st0" d="M585.3,429.9l-2.8,34c-0.3,4-3.7,7-7.5,6.7l0,0c-3.8-0.3-6.7-3.9-6.3-7.9l2.8-34c0.3-4,3.7-7,7.5-6.7l0,0
	C582.8,422.3,585.6,425.8,585.3,429.9z"/>
<path class="st0" d="M459.9,298.7l7.1,34c0.9,4-1.5,7.9-5.2,8.6l0,0c-3.7,0.7-7.4-1.9-8.2-5.9l-7.1-34c-0.9-4,1.5-7.9,5.2-8.6l0,0
	C455.4,292,459.1,294.6,459.9,298.7z"/>
<path class="st0" d="M672.1,427.1l-17.1,29c-2,3.4-6.3,4.5-9.6,2.4l0,0c-3.2-2.1-4.3-6.7-2.3-10.1l17.1-29c2-3.4,6.3-4.5,9.6-2.4
	l0,0C673.1,419.2,674.1,423.6,672.1,427.1z"/>
<path class="st0" d="M730.2,433.5l-31.2-9.3c-3.7-1.1-5.9-5.1-4.8-9l0,0c1-3.9,4.9-6.1,8.6-5l31.2,9.3c3.7,1.1,5.9,5.1,4.8,9l0,0
	C737.8,432.3,733.9,434.5,730.2,433.5z"/>
<path class="st0" d="M669.6,383.8l22-25.1c2.6-3,7-3.2,9.8-0.4l0,0c2.8,2.7,3,7.3,0.4,10.3l-22,25.1c-2.6,3-7,3.2-9.8,0.4l0,0
	C667.1,391.4,667,386.8,669.6,383.8z"/>
<path class="st0" d="M630.8,404.6l-5.9-33.5c-0.7-3.9,1.8-7.8,5.5-8.5l0,0c3.8-0.7,7.4,1.9,8.1,5.8l5.9,33.5
	c0.7,3.9-1.8,7.8-5.5,8.5l0,0C635.1,411.2,631.5,408.6,630.8,404.6z"/>
<path class="st0" d="M611.4,340.4l30.4-11.9c3.6-1.4,7.6,0.5,9,4.3l0,0c1.4,3.8-0.5,8-4.1,9.4l-30.4,11.9c-3.6,1.4-7.6-0.5-9-4.3
	l0,0C605.9,346,607.8,341.8,611.4,340.4z"/>
<path class="st0" d="M574.3,355.3l19.3,27.4c2.3,3.3,1.6,7.8-1.4,10.2l0,0c-3.1,2.4-7.4,1.7-9.7-1.5L563.1,364
	c-2.3-3.3-1.6-7.8,1.4-10.2l0,0C567.6,351.3,572,352,574.3,355.3z"/>
<path class="st0" d="M422.4,408.3l25.3-21.4c3-2.5,7.4-2,9.8,1.1l0,0c2.4,3.2,1.9,7.7-1.1,10.3l-25.3,21.4c-3,2.5-7.4,2-9.8-1.1l0,0
	C418.9,415.4,419.4,410.8,422.4,408.3z"/>
<path class="st0" d="M410.3,381.1l-1.1-34.1c-0.1-4,2.9-7.4,6.7-7.5l0,0c3.8-0.1,7.1,3,7.2,7.1l1.1,34.1c0.1,4-2.9,7.4-6.7,7.5l0,0
	C413.7,388.3,410.5,385.1,410.3,381.1z"/>
<path class="st0" d="M360.6,344.3l31.7-7c3.7-0.8,7.4,1.7,8.2,5.7l0,0c0.8,3.9-1.6,7.8-5.4,8.6l-31.7,7c-3.7,0.8-7.4-1.7-8.2-5.7
	l0,0C354.4,349,356.8,345.1,360.6,344.3z"/>
<path class="st0" d="M324.7,295.6l15.2,30.1c1.8,3.6,0.5,8-2.9,9.9l0,0c-3.4,1.9-7.6,0.5-9.4-3.1l-15.2-30.1c-1.8-3.6-0.5-8,2.9-9.9
	l0,0C318.7,290.7,322.9,292.1,324.7,295.6z"/>
<path class="st0" d="M332.5,376l-32.5,0.6c-3.8,0.1-7-3.1-7.1-7.2l0,0c-0.1-4,3-7.3,6.8-7.4l32.5-0.6c3.8-0.1,7,3.1,7.1,7.2l0,0
	C339.4,372.6,336.3,376,332.5,376z"/>
<path class="st0" d="M373.6,391.1l-18.9,27.7c-2.3,3.3-6.6,4-9.7,1.7l0,0c-3.1-2.4-3.8-6.9-1.6-10.2l18.9-27.7
	c2.3-3.3,6.6-4,9.7-1.7l0,0C375.1,383.3,375.9,387.9,373.6,391.1z"/>
<path class="st0" d="M342.9,450.3l-29.2-14.8c-3.5-1.8-4.9-6.1-3.2-9.8l0,0c1.7-3.7,5.9-5.1,9.3-3.4l29.2,14.8
	c3.5,1.8,4.9,6.1,3.2,9.8l0,0C350.5,450.5,346.3,452.1,342.9,450.3z"/>
<path class="st0" d="M431,264.1l5.5-33.6c0.6-4,4.2-6.7,8-6l0,0c3.8,0.7,6.3,4.4,5.7,8.4l-5.5,33.6c-0.6,4-4.2,6.7-8,6l0,0
	C432.9,271.9,430.4,268.1,431,264.1z"/>
<path class="st0" d="M563.8,328.1l30,13.1c3.6,1.5,5.2,5.8,3.7,9.6l0,0c-1.5,3.7-5.5,5.5-9.1,3.9l-30-13.1c-3.6-1.5-5.2-5.8-3.7-9.6
	l0,0C556.2,328.3,560.3,326.6,563.8,328.1z"/>
<path class="st0" d="M732.6,330l27.9-17.4c3.3-2.1,7.6-0.9,9.5,2.6l0,0c1.9,3.5,0.9,7.9-2.4,10l-27.9,17.4c-3.3,2.1-7.6,0.9-9.5-2.6
	l0,0C728.2,336.5,729.3,332,732.6,330z"/>
<path class="st0" d="M535.2,444.5l21.1,25.9c2.5,3.1,2.2,7.7-0.8,10.3l0,0c-2.9,2.6-7.3,2.3-9.8-0.8L524.7,454
	c-2.5-3.1-2.2-7.7,0.8-10.3l0,0C528.4,441.1,532.8,441.4,535.2,444.5z"/>
<path class="st0" d="M611,184l-17.9,28.5c-2.1,3.4-6.4,4.3-9.6,2.1l0,0c-3.2-2.2-4.1-6.8-2-10.1l17.9-28.5c2.1-3.4,6.4-4.3,9.6-2.1
	l0,0C612.2,176.1,613,180.6,611,184z"/>
<path class="st0" d="M495.3,433.9l-16.1-29.6c-1.9-3.5-0.8-7.9,2.6-10l0,0c3.3-2,7.6-0.8,9.5,2.7l16.1,29.6c1.9,3.5,0.8,7.9-2.6,10
	l0,0C501.4,438.6,497.2,437.4,495.3,433.9z"/>
<path class="st0" d="M502.4,479l-32.2-4.2c-3.8-0.5-6.5-4.1-6-8.1l0,0c0.4-4,4-6.9,7.7-6.4l32.2,4.2c3.8,0.5,6.5,4.1,6,8.1l0,0
	C509.7,476.7,506.2,479.5,502.4,479z"/>
<path class="st0" d="M438.3,479l-1.6-34c-0.2-4,2.7-7.4,6.6-7.6l0,0c3.8-0.2,7.1,2.9,7.3,7l1.6,34c0.2,4-2.7,7.4-6.6,7.6l0,0
	C441.8,486.2,438.5,483.1,438.3,479z"/>
<path class="st0" d="M492.8,316.6l30.7-11c3.6-1.3,7.6,0.7,8.8,4.5l0,0c1.3,3.8-0.7,8-4.3,9.3l-30.7,11c-3.6,1.3-7.6-0.7-8.8-4.5
	l0,0C487.3,322.1,489.2,317.9,492.8,316.6z"/>
<path class="st0" d="M318.8,226.9l23.6,24.1c2.8,2.9,3.1,7.6,0.6,10.7l0,0c-2.4,3.1-6.7,3.2-9.5,0.3L310,237.9
	c-2.8-2.9-3.1-7.6-0.6-10.7l0,0C311.8,224.2,316,224,318.8,226.9z"/>
<path class="st0" d="M840.2,367.8l31.7-7c3.7-0.8,7.4,1.7,8.2,5.7l0,0c0.8,3.9-1.6,7.8-5.4,8.6l-31.7,7c-3.7,0.8-7.4-1.7-8.2-5.7
	l0,0C834.1,372.5,836.5,368.6,840.2,367.8z"/>
<path class="st0" d="M804.5,319.2l15.2,30.1c1.8,3.6,0.5,8-2.9,9.9l0,0c-3.4,1.9-7.6,0.5-9.4-3.1L792.2,326c-1.8-3.6-0.5-8,2.9-9.9
	l0,0C798.4,314.2,802.7,315.6,804.5,319.2z"/>
<path class="st0" d="M812.2,399.6l-32.5,0.6c-3.8,0.1-7-3.1-7.1-7.2l0,0c-0.1-4,3-7.3,6.8-7.4l32.5-0.6c3.8-0.1,7,3.1,7.1,7.2l0,0
	C819.1,396.2,816.1,399.5,812.2,399.6z"/>
<path class="st0" d="M853.3,414.7l-18.9,27.7c-2.3,3.3-6.6,4-9.7,1.7l0,0c-3.1-2.4-3.8-6.9-1.6-10.2l18.9-27.7
	c2.3-3.3,6.6-4,9.7-1.7l0,0C854.9,406.8,855.6,411.4,853.3,414.7z"/>
<path class="st0" d="M822.6,473.8L793.3,459c-3.5-1.8-4.9-6.1-3.2-9.8l0,0c1.7-3.7,5.9-5.1,9.3-3.4l29.2,14.8
	c3.5,1.8,4.9,6.1,3.2,9.8l0,0C830.2,474.1,826,475.5,822.6,473.8z"/>
<path class="st0" d="M512.2,270.8L483,255.9c-3.5-1.8-4.9-6.1-3.2-9.8l0,0c1.7-3.7,5.9-5.1,9.3-3.4l29.2,14.8
	c3.5,1.8,4.9,6.1,3.2,9.8l0,0C519.9,271,515.7,272.5,512.2,270.8z"/>
<path class="st0" d="M517.3,355.7l23.6,24.1c2.8,2.9,3.1,7.6,0.6,10.7l0,0c-2.4,3.1-6.7,3.2-9.5,0.3l-23.6-24.1
	c-2.8-2.9-3.1-7.6-0.6-10.7l0,0C510.2,353,514.5,352.9,517.3,355.7z"/>
<path class="st0" d="M765.4,246.5l23.6,24.1c2.8,2.9,3.1,7.6,0.6,10.7l0,0c-2.4,3.1-6.7,3.2-9.5,0.3l-23.6-24.1
	c-2.8-2.9-3.1-7.6-0.6-10.7l0,0C758.3,243.8,762.6,243.6,765.4,246.5z"/>
<path class="st0" d="M1030,308.2l31.7-7c3.7-0.8,7.4,1.7,8.2,5.7l0,0c0.8,3.9-1.6,7.8-5.4,8.6l-31.7,7c-3.7,0.8-7.4-1.7-8.2-5.7l0,0
	C1023.8,312.9,1026.3,309,1030,308.2z"/>
<path class="st0" d="M994.2,259.6l15.2,30.1c1.8,3.6,0.5,8-2.9,9.9l0,0c-3.4,1.9-7.6,0.5-9.4-3.1l-15.2-30.1c-1.8-3.6-0.5-8,2.9-9.9
	l0,0C988.2,254.6,992.4,256,994.2,259.6z"/>
<path class="st0" d="M1002,339.9l-32.5,0.6c-3.8,0.1-7-3.1-7.1-7.2l0,0c-0.1-4,3-7.3,6.8-7.4l32.5-0.6c3.8-0.1,7,3.1,7.1,7.2l0,0
	C1008.8,336.5,1005.8,339.9,1002,339.9z"/>
<path class="st0" d="M1043.1,355l-18.9,27.7c-2.3,3.3-6.6,4-9.7,1.7l0,0c-3.1-2.4-3.8-6.9-1.6-10.2l18.9-27.7c2.3-3.3,6.6-4,9.7-1.7
	l0,0C1044.6,347.2,1045.3,351.8,1043.1,355z"/>
<path class="st0" d="M1012.3,414.2l-29.2-14.8c-3.5-1.8-4.9-6.1-3.2-9.8l0,0c1.7-3.7,5.9-5.1,9.3-3.4l29.2,14.8
	c3.5,1.8,4.9,6.1,3.2,9.8l0,0C1019.9,414.4,1015.8,415.9,1012.3,414.2z"/>
<path class="st0" d="M966.4,197.6l-32.2-2.6c-3.8-0.3-6.8-3.8-6.6-7.9l0,0c0.2-4,3.4-7.1,7.2-6.8l32.2,2.6c3.8,0.3,6.8,3.8,6.6,7.9
	l0,0C973.4,194.9,970.2,197.9,966.4,197.6z"/>
<path class="st0" d="M373.9,299.3l30.6-11.4c3.6-1.3,7.6,0.6,8.9,4.4l0,0c1.3,3.8-0.6,8-4.2,9.3l-30.6,11.4
	c-3.6,1.3-7.6-0.6-8.9-4.4l0,0C368.4,304.9,370.3,300.7,373.9,299.3z"/>
<path class="st0" d="M392.2,238.3l15.9,29.7c1.9,3.5,0.7,8-2.7,10l0,0c-3.3,2-7.6,0.7-9.5-2.8l-15.9-29.7c-1.9-3.5-0.7-8,2.7-10l0,0
	C386.1,233.6,390.4,234.8,392.2,238.3z"/>
<path class="st0" d="M425.5,187.8l-22.7,24.3c-2.7,2.9-7.1,2.9-9.8,0.1l0,0c-2.7-2.8-2.8-7.4-0.1-10.3l22.7-24.3
	c2.7-2.9,7.1-2.9,9.8-0.1l0,0C428.2,180.3,428.2,184.8,425.5,187.8z"/>
<path class="st0" d="M355,219.9l-10.4-32.3c-1.2-3.8,0.7-8,4.4-9.3l0,0c3.6-1.3,7.6,0.7,8.8,4.6l10.4,32.3c1.2,3.8-0.7,8-4.4,9.3
	l0,0C360.2,225.7,356.2,223.7,355,219.9z"/>
</svg>
