<?xml version="1.0" encoding="utf-8"?>
<!-- Generator: Adobe Illustrator 24.2.1, SVG Export Plug-In . SVG Version: 6.00 Build 0)  -->
<svg version="1.1" id="Ebene_1" xmlns="http://www.w3.org/2000/svg" xmlns:xlink="http://www.w3.org/1999/xlink" x="0px" y="0px"
	 viewBox="0 0 1280 1024" style="enable-background:new 0 0 1280 1024;" xml:space="preserve">
<style type="text/css">
	.st0{fill:#F09BC9;}
	.st1{fill:#8F9BC9;}
	.st2{fill:#8FC9C9;}
	.st3{fill:#F0C3C9;}
</style>
<g id="Ebene_3">
	<ellipse class="st0" cx="659" cy="342.6" rx="340" ry="320"/>
</g>
<g id="Ebene_2_1_">
	<polygon class="st1" points="876,983.7 442.1,982.2 350.8,500 967.1,502 	"/>
</g>
<g id="Ebene_4">
	<polygon class="st2" points="749.8,867.4 658.8,824.2 567.8,867.2 585.4,776.2 511.7,711.4 613.4,698.4 659,615.5 704.4,698.4 
		806.1,711.9 732.4,776.2 	"/>
</g>
<g id="Ebene_1_1_">
	<ellipse class="st3" cx="449.8" cy="307.2" rx="60.9" ry="52.5"/>
	<ellipse class="st3" cx="559.8" cy="157" rx="73.7" ry="69.3"/>
	<ellipse class="st0" cx="972.7" cy="483.2" rx="45.9" ry="47.2"/>
	<ellipse class="st0" cx="886.4" cy="483.2" rx="45.9" ry="47.2"/>
	<ellipse class="st0" cx="870.7" cy="550.8" rx="86.2" ry="81.1"/>
	<ellipse class="st0" cx="794.9" cy="483.2" rx="45.9" ry="47.2"/>
	<ellipse class="st0" cx="758.3" cy="532" rx="45.9" ry="47.2"/>
	<ellipse class="st0" cx="708.4" cy="483.2" rx="45.9" ry="47.2"/>
	<ellipse class="st0" cx="625.7" cy="486.5" rx="45.9" ry="47.2"/>
	<ellipse class="st0" cx="539.5" cy="486.5" rx="45.9" ry="47.2"/>
	<ellipse class="st0" cx="447.7" cy="486.5" rx="45.9" ry="47.2"/>
	<ellipse class="st0" cx="361.5" cy="486.5" rx="45.9" ry="47.2"/>
</g>
</svg>
