<?xml version="1.0" encoding="utf-8"?>
<!-- Generator: Adobe Illustrator 24.2.1, SVG Export Plug-In . SVG Version: 6.00 Build 0)  -->
<svg version="1.1" id="Ebene_1" xmlns="http://www.w3.org/2000/svg" xmlns:xlink="http://www.w3.org/1999/xlink" x="0px" y="0px"
	 viewBox="0 0 1280 1024" style="enable-background:new 0 0 1280 1024;" xml:space="preserve">
<style type="text/css">
	.st0{fill:#F7931E;}
	.st1{fill:#FBB03B;}
</style>
<g id="Ebene_2_1_">
	<polygon class="st0" points="652.4,1015.6 253.2,25 1051.6,25 	"/>
</g>
<g id="Ebene_1_1_">
	<polygon class="st1" points="710,792 653.1,691.9 594.7,792 652.7,946.8 	"/>
	<polygon class="st1" points="647.2,646.9 590.3,546.8 532,646.9 590.3,747 	"/>
	<polygon class="st1" points="772.8,646.9 715.8,546.8 657.5,646.9 715.8,747 	"/>
	<polygon class="st1" points="584.1,493.6 527.2,393.5 468.8,493.6 527.2,593.7 	"/>
	<polygon class="st1" points="709.7,493.6 652.7,393.5 594.4,493.6 652.7,593.7 	"/>
	<polygon class="st1" points="835.4,493.6 778.5,393.5 720.1,493.6 778.5,593.7 	"/>
	<polygon class="st1" points="522.3,332.9 465.3,232.8 407,332.9 465.3,433 	"/>
	<polygon class="st1" points="647.8,332.9 590.9,232.8 532.5,332.9 590.9,433 	"/>
	<polygon class="st1" points="897.8,332.9 840.8,232.8 782.5,332.9 840.8,433 	"/>
	<polygon class="st1" points="773.5,332.9 716.6,232.8 658.2,332.9 716.6,433 	"/>
	<polygon class="st1" points="458.7,165.6 401.8,65.6 343.5,165.6 401.8,265.7 	"/>
	<polygon class="st1" points="584.3,165.6 527.3,65.6 469,165.6 527.3,265.7 	"/>
	<polygon class="st1" points="961.3,165.6 904.3,65.6 846,165.6 904.3,265.7 	"/>
	<polygon class="st1" points="834.3,165.6 777.3,65.6 719,165.6 777.3,265.7 	"/>
	<polygon class="st1" points="710,165.6 653.1,65.6 594.7,165.6 653.1,265.7 	"/>
</g>
<path class="st1" d="M1049.7,37.2H255.1c-6.3,0-11.4-5.1-11.4-11.4v-1.5c0-6.3,5.1-11.4,11.4-11.4h794.5c6.3,0,11.4,5.1,11.4,11.4
	v1.5C1061,32.1,1055.9,37.2,1049.7,37.2z"/>
</svg>
