<?xml version="1.0" encoding="utf-8"?>
<!-- Generator: Adobe Illustrator 24.2.1, SVG Export Plug-In . SVG Version: 6.00 Build 0)  -->
<svg version="1.1" id="Ebene_1" xmlns="http://www.w3.org/2000/svg" xmlns:xlink="http://www.w3.org/1999/xlink" x="0px" y="0px"
	 viewBox="0 0 1280 1024" style="enable-background:new 0 0 1280 1024;" xml:space="preserve">
<style type="text/css">
	.st0{fill:#F09BC9;}
	.st1{fill:#F7931E;}
	.st2{fill:#FBB03B;}
	.st3{fill:#F0C3C9;}
</style>
<g id="Ebene_3">
	<ellipse class="st0" cx="581.5" cy="295" rx="278.9" ry="289"/>
</g>
<g id="Ebene_2_1_">
	<polygon class="st1" points="581.5,1024 322.6,419 840.4,419 	"/>
</g>
<g id="Ebene_1_1_">
	<polygon class="st2" points="618.9,887.4 582,826.3 544.1,887.4 581.8,982 	"/>
	<polygon class="st2" points="578.2,798.8 541.3,737.7 503.4,798.8 541.3,860 	"/>
	<polygon class="st2" points="659.6,798.8 622.7,737.7 584.8,798.8 622.7,860 	"/>
	<polygon class="st2" points="537.2,705.2 500.3,644 462.5,705.2 500.3,766.3 	"/>
	<polygon class="st2" points="618.7,705.2 581.8,644 543.9,705.2 581.8,766.3 	"/>
	<polygon class="st2" points="700.2,705.2 663.3,644 625.5,705.2 663.3,766.3 	"/>
	<polygon class="st2" points="497.1,607 460.2,545.9 422.4,607 460.2,668.1 	"/>
	<polygon class="st2" points="578.6,607 541.6,545.9 503.8,607 541.6,668.1 	"/>
	<polygon class="st2" points="740.7,607 703.7,545.9 665.9,607 703.7,668.1 	"/>
	<polygon class="st2" points="660.1,607 623.2,545.9 585.3,607 623.2,668.1 	"/>
	<polygon class="st2" points="455.9,504.8 419,443.7 381.2,504.8 419,566 	"/>
	<polygon class="st2" points="537.4,504.8 500.4,443.7 462.6,504.8 500.4,566 	"/>
	<polygon class="st2" points="781.9,504.8 744.9,443.7 707.1,504.8 744.9,566 	"/>
	<polygon class="st2" points="699.5,504.8 662.5,443.7 624.7,504.8 662.5,566 	"/>
	<polygon class="st2" points="618.9,504.8 582,443.7 544.1,504.8 582,566 	"/>
</g>
<g id="Ebene_4">
	<ellipse class="st3" cx="409.2" cy="262.9" rx="50" ry="47.3"/>
	<ellipse class="st3" cx="499.3" cy="127.2" rx="60.4" ry="62.6"/>
	<ellipse class="st0" cx="835.8" cy="420.4" rx="37.6" ry="42.5"/>
	<ellipse class="st0" cx="765.1" cy="420.4" rx="37.6" ry="42.5"/>
	<ellipse class="st0" cx="755.8" cy="478.2" rx="66" ry="68.4"/>
	<ellipse class="st0" cx="689.8" cy="420.4" rx="37.6" ry="42.5"/>
	<ellipse class="st0" cx="662.3" cy="465.9" rx="37.6" ry="42.5"/>
	<ellipse class="st0" cx="619.1" cy="420.4" rx="37.6" ry="42.5"/>
	<ellipse class="st0" cx="543.9" cy="423.4" rx="37.6" ry="42.5"/>
	<ellipse class="st0" cx="473.2" cy="423.4" rx="37.6" ry="42.5"/>
	<ellipse class="st0" cx="397.9" cy="423.4" rx="37.6" ry="42.5"/>
	<ellipse class="st0" cx="327.2" cy="423.4" rx="37.6" ry="42.5"/>
</g>
</svg>
